<svg xmlns="http://www.w3.org/2000/svg" xml:space="preserve" viewBox="0 0 64.297 77.722"><circle cx="19.662" cy="58.262" r="5.25" fill="#8b0304" stroke="#fff" stroke-miterlimit="10" stroke-width=".5"/><path fill="none" stroke="#fff" stroke-miterlimit="10" stroke-width=".5" d="M24.969 55.587v.002z"/><path fill="#006838" stroke="#fff" stroke-miterlimit="10" stroke-width=".5" d="M23.151 53.77c.023-.045.012-.104 0 0z"/><path fill="#006838" stroke="#fff" stroke-miterlimit="10" stroke-width=".5" d="M23.231 49.68c.575.987.814 2.316-.01 4.024l-.068.065-.002.001.119.05c.864-.405 1.627-.534 2.3-.496-.033-1.896-1.46-3.089-2.339-3.644z"/><path fill="#006838" stroke="#fff" stroke-miterlimit="10" stroke-width=".5" d="M23.153 53.77h-.002c.03-.014.017-.008.002 0zm6.297 2.608c.07-.11.142-.21.213-.313a4.4 4.4 0 0 0-.613-.427c.267.425.4.74.4.74zm-6.299-2.608c-.014.008-.03.016 0 0zm1.818 1.819v-.002c-.015.007-.03.015 0 .002zm0-.002c.023-.043.011-.104 0 0zm.001 0-.001.002zm-2.415-6.276s.283.121.676.37a4.5 4.5 0 0 0-.387-.563c-.095.064-.187.129-.29.193z"/><path fill="#006838" stroke="#fff" stroke-miterlimit="10" stroke-width=".5" d="M25.57 53.324c.012.65-.138 1.38-.532 2.196l-.068.067c.015-.008.028-.014-.001.002l.118.048c1.682-.787 2.989-.56 3.963.001-.549-.874-1.682-2.213-3.48-2.314z"/><path fill="#006838" stroke="#fff" stroke-miterlimit="10" stroke-width=".5" d="m24.97 55.587-.001.002c.03-.016.016-.01.001-.002zm13.013-.89c1.719-6.01 7.564-4.034 7.564-4.034.554-4.758 6.4-5.208 6.4-5.208-.237-3.554 4.548-5.008 4.548-5.008-1.148-3.145 3.837-5.72 3.837-5.72-1.364-2.725 2.772-6.513 2.772-6.513-1.935-2.827.814-5.94.814-5.94-2.095-1.35-.752-3.675-.752-3.675s-.852-.564-1.358-1.358c-.639-.512-1.065-1.181-1.065-1.181s-2.338 1.315-3.665-.796c0 0-3.146 2.71-5.949.742 0 0-3.837 4.09-6.546 2.696 0 0-2.634 4.953-5.772 3.768 0 0-1.517 4.767-5.068 4.487 0 0-.52 5.841-5.283 6.338 0 0 1.905 5.869-4.125 7.514 0 0 3.913 4.673-1.49 8.309q.21.26.386.562c.88.555 2.306 1.748 2.34 3.644 1.797.1 2.93 1.44 3.48 2.314a4.4 4.4 0 0 1 .612.427c3.698-5.323 8.32-1.368 8.32-1.368zM14.27 50.448c-.023.123-.032.234-.061.362 0 0 .49-.193 1.198-.302a5 5 0 0 0-1.137-.06zm6.084 3.092v.002c.01-.034.005-.018 0-.001zm0 .002c-.005.015-.01.029 0 0zm0 0"/><path fill="#006838" stroke="#fff" stroke-miterlimit="10" stroke-width=".5" d="M19.574 51.966c.302.393.572.875.783 1.479l-.003.096c.005-.017.01-.032 0 0l.12-.05c.702-1.938 1.964-2.674 3.164-2.887-1.158-.178-2.863-.11-4.064 1.362zm-.97 1.576c-.005.015-.01.029 0 0zm0-.002v.002c.01-.034.005-.018 0-.001z"/><path fill="#006838" stroke="#fff" stroke-miterlimit="10" stroke-width=".5" d="M23.638 50.604a6.3 6.3 0 0 1 1.264.326c-.029-.135-.037-.254-.06-.384a5 5 0 0 0-1.204.058zm-8.231-.095c1.219.21 2.507.95 3.2 2.936l-.003.096c.005-.017.01-.032 0 0l.12-.05c.23-.633.523-1.125.85-1.525-1.21-1.575-2.991-1.638-4.167-1.458z"/><path fill="#004f27" stroke="#fff" stroke-miterlimit="10" stroke-width=".5" d="M9.457 43.539c3.1-5.427-2.397-8.23-2.397-8.23 3.018-3.72-.745-8.218-.745-8.218 2.707-2.312.41-6.757.41-6.757 3.056-1.38 1.417-6.744 1.417-6.744 2.902-.93 2.722-6.536 2.722-6.536 3.374-.59 3.682-4.73 3.682-4.73C16.769 2.83 17.562.718 17.68.353c-.864.13-1.731-.059-1.731-.059s-.723 2.584-3.154 2.03c0 0-.308 4.14-3.682 4.73 0 0 .18 5.606-2.722 6.536 0 0 1.639 5.363-1.416 6.744 0 0 2.296 4.445-.411 6.757 0 0 3.763 4.498.745 8.217 0 0 5.497 2.804 2.397 8.23 0 0 6.295.553 4.752 7.272 0 0 .785-.31 1.811-.362 1.225-6.363-4.813-6.91-4.813-6.91z"/><path fill="#006838" stroke="#fff" stroke-miterlimit="10" stroke-width=".5" d="M29.748 43.709c-3.035-5.466 2.496-8.202 2.496-8.202-2.973-3.756.842-8.208.842-8.208-2.68-2.345-.326-6.757-.326-6.757-3.035-1.412-1.33-6.757-1.33-6.757-2.892-.963-2.646-6.566-2.646-6.566-3.368-.63-3.625-4.775-3.625-4.775-2.27.49-3.026-1.725-3.119-2.03l-.099-.02c-.3.052-1.318.185-2.153-.11-.764.207-1.617.094-1.943.037-.054.01-.109.024-.164.032-.12.365-.912 2.477-3.135 1.971 0 0-.308 4.14-3.682 4.73 0 0 .18 5.606-2.722 6.536 0 0 1.639 5.363-1.416 6.744 0 0 2.295 4.445-.412 6.757 0 0 3.764 4.498.746 8.217 0 0 5.497 2.804 2.397 8.23 0 0 6.038.547 4.813 6.91a5 5 0 0 1 1.137.06c1.176-.18 2.958-.117 4.167 1.458 1.201-1.472 2.906-1.54 4.064-1.362a5 5 0 0 1 1.204-.058c-1.13-6.356 4.906-6.837 4.906-6.837z"/><circle cx="31.67" cy="61.461" r="10.627" fill="#c9252c" stroke="#fff" stroke-miterlimit="10" stroke-width=".5"/><path fill="#c9252c" stroke="#fff" stroke-miterlimit="10" stroke-width=".5" d="M21.506 66.845c0 5.87-4.758 10.627-10.628 10.627S.25 72.715.25 66.844c0-5.873 4.758-10.631 10.628-10.631s10.628 4.758 10.628 10.631z"/><path fill="#004f27" stroke="#fff" stroke-miterlimit="10" stroke-width=".5" d="M24.335 40.81c6.03-1.646 4.125-7.515 4.125-7.515 4.763-.497 5.283-6.338 5.283-6.338 3.55.28 5.068-4.487 5.068-4.487 3.138 1.184 5.772-3.768 5.772-3.768 2.709 1.394 6.546-2.696 6.546-2.696 2.803 1.969 5.949-.742 5.949-.742 1.327 2.11 3.665.796 3.665.796s.426.67 1.065 1.18c-.215-.336-.373-.71-.367-1.108l-.003-.134c-.023.003-.012.003 0 .002-.012 0-.023.001 0-.002.002-.012 0-.006 0 0 0-.006.002-.012 0 0l-.067-.003c-1.332.004-2.446-1.753-2.446-1.753s-2.338 1.315-3.665-.795c0 0-3.145 2.71-5.948.742 0 0-3.838 4.09-6.547 2.695 0 0-2.634 4.953-5.77 3.769 0 0-1.52 4.766-5.069 4.486 0 0-.52 5.842-5.283 6.339 0 0 1.905 5.868-4.125 7.514 0 0 4.06 4.84-1.78 8.502 0 0 1.217.526 2.106 1.624 5.404-3.636 1.491-8.309 1.491-8.309z"/><circle cx="16.596" cy="46.286" r="10.628" fill="#c9252c" stroke="#fff" stroke-miterlimit="10" stroke-width=".5"/><path fill="#fff" stroke="#fff" stroke-miterlimit="10" stroke-width=".5" d="M24.07 50.2q-.09 0-.185-.018a1 1 0 0 1-.798-1.167c1.271-6.779-3.93-9.108-3.983-9.13a1 1 0 0 1-.521-1.314.997.997 0 0 1 1.313-.522c.068.028 6.72 3.003 5.157 11.336a1 1 0 0 1-.982.815zm14.887 15.246a1 1 0 0 1-.983-1.184c1.27-6.779-3.93-9.107-3.983-9.13a1 1 0 0 1-.523-1.315.997.997 0 0 1 1.314-.521c.068.029 6.72 3.003 5.156 11.335a1 1 0 0 1-.981.815zm-20.803 5.25a1 1 0 0 1-.984-1.184c1.272-6.779-3.93-9.107-3.982-9.13a1 1 0 1 1 .792-1.836c.067.029 6.72 3.003 5.156 11.335a1 1 0 0 1-.982.815z"/></svg>